<svg width="172" height="73" viewBox="0 0 172 73" fill="none" xmlns="http://www.w3.org/2000/svg">
<circle cx="25.5" cy="23.5" r="22" stroke="#FDD451" stroke-width="3"/>
<path d="M13.3976 23.7227L13.8312 19.4688H18.2023V20.4707H14.7511L14.4933 22.7969C14.9113 22.5508 15.3859 22.4277 15.9171 22.4277C16.6945 22.4277 17.3116 22.6855 17.7687 23.2012C18.2257 23.7129 18.4542 24.4062 18.4542 25.2812C18.4542 26.1602 18.2159 26.8535 17.7394 27.3613C17.2667 27.8652 16.6046 28.1172 15.753 28.1172C14.9991 28.1172 14.3839 27.9082 13.9073 27.4902C13.4308 27.0723 13.1593 26.4941 13.0929 25.7559H14.1183C14.1847 26.2441 14.3585 26.6133 14.6398 26.8633C14.921 27.1094 15.2921 27.2324 15.753 27.2324C16.257 27.2324 16.6515 27.0605 16.9366 26.7168C17.2257 26.373 17.3702 25.8984 17.3702 25.293C17.3702 24.7227 17.214 24.2656 16.9015 23.9219C16.5929 23.5742 16.1808 23.4004 15.6652 23.4004C15.1925 23.4004 14.8214 23.5039 14.5519 23.7109L14.2648 23.9453L13.3976 23.7227ZM24.2803 28H23.1905V20.7754L21.0049 21.5781V20.5938L24.1104 19.4277H24.2803V28ZM28.6709 27.4316C28.6709 27.2441 28.7255 27.0879 28.8349 26.9629C28.9482 26.8379 29.1162 26.7754 29.3388 26.7754C29.5615 26.7754 29.7295 26.8379 29.8427 26.9629C29.9599 27.0879 30.0185 27.2441 30.0185 27.4316C30.0185 27.6113 29.9599 27.7617 29.8427 27.8828C29.7295 28.0039 29.5615 28.0645 29.3388 28.0645C29.1162 28.0645 28.9482 28.0039 28.8349 27.8828C28.7255 27.7617 28.6709 27.6113 28.6709 27.4316ZM36.3427 28H35.2528V20.7754L33.0673 21.5781V20.5938L36.1727 19.4277H36.3427V28Z" fill="#242424"/>
<circle cx="146.5" cy="23.5" r="22" fill="#FDD451" stroke="#FDD451" stroke-width="3"/>
<path d="M139.407 20.0781L135.874 28H134.737L138.259 20.3594H133.642V19.4688H139.407V20.0781ZM146.892 21.6953C146.892 22.1211 146.778 22.5 146.552 22.832C146.329 23.1641 146.026 23.4238 145.644 23.6113C146.089 23.8027 146.44 24.082 146.698 24.4492C146.96 24.8164 147.091 25.2324 147.091 25.6973C147.091 26.4355 146.841 27.0234 146.341 27.4609C145.845 27.8984 145.19 28.1172 144.378 28.1172C143.558 28.1172 142.899 27.8984 142.403 27.4609C141.911 27.0195 141.665 26.4316 141.665 25.6973C141.665 25.2363 141.79 24.8203 142.04 24.4492C142.294 24.0781 142.644 23.7969 143.089 23.6055C142.71 23.418 142.411 23.1582 142.192 22.8262C141.974 22.4941 141.864 22.1172 141.864 21.6953C141.864 20.9766 142.095 20.4062 142.556 19.9844C143.017 19.5625 143.624 19.3516 144.378 19.3516C145.128 19.3516 145.733 19.5625 146.194 19.9844C146.659 20.4062 146.892 20.9766 146.892 21.6953ZM146.007 25.6738C146.007 25.1973 145.855 24.8086 145.55 24.5078C145.249 24.207 144.855 24.0566 144.366 24.0566C143.878 24.0566 143.485 24.2051 143.189 24.502C142.896 24.7988 142.749 25.1895 142.749 25.6738C142.749 26.1582 142.892 26.5391 143.177 26.8164C143.466 27.0938 143.866 27.2324 144.378 27.2324C144.886 27.2324 145.284 27.0938 145.573 26.8164C145.862 26.5352 146.007 26.1543 146.007 25.6738ZM144.378 20.2422C143.952 20.2422 143.606 20.375 143.341 20.6406C143.079 20.9023 142.948 21.2598 142.948 21.7129C142.948 22.1465 143.077 22.498 143.335 22.7676C143.597 23.0332 143.944 23.166 144.378 23.166C144.812 23.166 145.157 23.0332 145.415 22.7676C145.677 22.498 145.808 22.1465 145.808 21.7129C145.808 21.2793 145.673 20.9258 145.403 20.6523C145.134 20.3789 144.792 20.2422 144.378 20.2422ZM149.671 27.4316C149.671 27.2441 149.726 27.0879 149.835 26.9629C149.948 26.8379 150.116 26.7754 150.339 26.7754C150.561 26.7754 150.729 26.8379 150.843 26.9629C150.96 27.0879 151.019 27.2441 151.019 27.4316C151.019 27.6113 150.96 27.7617 150.843 27.8828C150.729 28.0039 150.561 28.0645 150.339 28.0645C150.116 28.0645 149.948 28.0039 149.835 27.8828C149.726 27.7617 149.671 27.6113 149.671 27.4316ZM154.278 23.7227L154.712 19.4688H159.083V20.4707H155.632L155.374 22.7969C155.792 22.5508 156.266 22.4277 156.798 22.4277C157.575 22.4277 158.192 22.6855 158.649 23.2012C159.106 23.7129 159.335 24.4062 159.335 25.2812C159.335 26.1602 159.097 26.8535 158.62 27.3613C158.147 27.8652 157.485 28.1172 156.634 28.1172C155.88 28.1172 155.265 27.9082 154.788 27.4902C154.311 27.0723 154.04 26.4941 153.974 25.7559H154.999C155.065 26.2441 155.239 26.6133 155.52 26.8633C155.802 27.1094 156.173 27.2324 156.634 27.2324C157.138 27.2324 157.532 27.0605 157.817 26.7168C158.106 26.373 158.251 25.8984 158.251 25.293C158.251 24.7227 158.095 24.2656 157.782 23.9219C157.474 23.5742 157.061 23.4004 156.546 23.4004C156.073 23.4004 155.702 23.5039 155.432 23.7109L155.145 23.9453L154.278 23.7227Z" fill="#242424"/>
<path d="M5.56172 67V58.4688H8.55C9.58516 58.4688 10.3703 58.668 10.9055 59.0664C11.4406 59.4609 11.7082 60.041 11.7082 60.8066C11.7082 61.2246 11.6008 61.5938 11.3859 61.9141C11.1711 62.2305 10.8723 62.4629 10.4895 62.6113C10.927 62.7207 11.2707 62.9414 11.5207 63.2734C11.7746 63.6055 11.9016 64.0117 11.9016 64.4922C11.9016 65.3125 11.6398 65.9336 11.1164 66.3555C10.593 66.7773 9.84687 66.9922 8.87812 67H5.56172ZM7.31953 63.2852V65.5879H8.82539C9.23945 65.5879 9.56172 65.4902 9.79219 65.2949C10.0266 65.0957 10.1437 64.8223 10.1437 64.4746C10.1437 63.6934 9.73945 63.2969 8.93086 63.2852H7.31953ZM7.31953 62.043H8.62031C9.50703 62.0273 9.95039 61.6738 9.95039 60.9824C9.95039 60.5957 9.83711 60.3184 9.61055 60.1504C9.38789 59.9785 9.03437 59.8926 8.55 59.8926H7.31953V62.043ZM17.1124 67.1172C16.1827 67.1172 15.4249 66.832 14.839 66.2617C14.257 65.6914 13.9659 64.9316 13.9659 63.9824V63.8184C13.9659 63.1816 14.089 62.6133 14.3351 62.1133C14.5812 61.6094 14.9288 61.2227 15.378 60.9531C15.8312 60.6797 16.3468 60.543 16.9249 60.543C17.7921 60.543 18.4737 60.8164 18.9698 61.3633C19.4698 61.9102 19.7198 62.6855 19.7198 63.6895V64.3809H15.6827C15.7374 64.7949 15.9015 65.127 16.1749 65.377C16.4523 65.627 16.8019 65.752 17.2237 65.752C17.8761 65.752 18.3859 65.5156 18.753 65.043L19.5851 65.9746C19.3312 66.334 18.9874 66.6152 18.5538 66.8184C18.1202 67.0176 17.6398 67.1172 17.1124 67.1172ZM16.9191 61.9141C16.5831 61.9141 16.3097 62.0273 16.0987 62.2539C15.8917 62.4805 15.7589 62.8047 15.7003 63.2266H18.0558V63.0918C18.048 62.7168 17.9464 62.4277 17.7511 62.2246C17.5558 62.0176 17.2784 61.9141 16.9191 61.9141ZM22.2295 67V61.9023H21.2862V60.6602H22.2295V60.1211C22.2295 59.4102 22.4327 58.8594 22.8389 58.4688C23.2491 58.0742 23.8213 57.877 24.5557 57.877C24.7901 57.877 25.0772 57.916 25.417 57.9941L25.3995 59.3066C25.2588 59.2715 25.087 59.2539 24.8838 59.2539C24.2471 59.2539 23.9287 59.5527 23.9287 60.1504V60.6602H25.1885V61.9023H23.9287V67H22.2295ZM26.8837 63.7715C26.8837 63.1426 27.0048 62.582 27.247 62.0898C27.4892 61.5977 27.8369 61.2168 28.29 60.9473C28.747 60.6777 29.2763 60.543 29.8779 60.543C30.7334 60.543 31.4306 60.8047 31.9697 61.3281C32.5127 61.8516 32.8154 62.5625 32.8779 63.4609L32.8896 63.8945C32.8896 64.8672 32.6181 65.6484 32.0752 66.2383C31.5322 66.8242 30.8037 67.1172 29.8896 67.1172C28.9755 67.1172 28.2451 66.8242 27.6982 66.2383C27.1552 65.6523 26.8837 64.8555 26.8837 63.8477V63.7715ZM28.5771 63.8945C28.5771 64.4961 28.6904 64.957 28.917 65.2773C29.1435 65.5938 29.4677 65.752 29.8896 65.752C30.2998 65.752 30.6201 65.5957 30.8505 65.2832C31.081 64.9668 31.1962 64.4629 31.1962 63.7715C31.1962 63.1816 31.081 62.7246 30.8505 62.4004C30.6201 62.0762 30.2959 61.9141 29.8779 61.9141C29.4638 61.9141 29.1435 62.0762 28.917 62.4004C28.6904 62.7207 28.5771 63.2188 28.5771 63.8945ZM38.5751 62.248C38.3446 62.2168 38.1415 62.2012 37.9657 62.2012C37.3251 62.2012 36.9052 62.418 36.7059 62.8516V67H35.0126V60.6602H36.6122L36.6591 61.416C36.9989 60.834 37.4696 60.543 38.0712 60.543C38.2587 60.543 38.4345 60.5684 38.5985 60.6191L38.5751 62.248ZM43.2762 67.1172C42.3465 67.1172 41.5887 66.832 41.0027 66.2617C40.4207 65.6914 40.1297 64.9316 40.1297 63.9824V63.8184C40.1297 63.1816 40.2527 62.6133 40.4988 62.1133C40.7449 61.6094 41.0926 61.2227 41.5418 60.9531C41.9949 60.6797 42.5105 60.543 43.0887 60.543C43.9559 60.543 44.6375 60.8164 45.1336 61.3633C45.6336 61.9102 45.8836 62.6855 45.8836 63.6895V64.3809H41.8465C41.9012 64.7949 42.0652 65.127 42.3387 65.377C42.616 65.627 42.9656 65.752 43.3875 65.752C44.0398 65.752 44.5496 65.5156 44.9168 65.043L45.7488 65.9746C45.4949 66.334 45.1512 66.6152 44.7176 66.8184C44.284 67.0176 43.8035 67.1172 43.2762 67.1172ZM43.0828 61.9141C42.7469 61.9141 42.4734 62.0273 42.2625 62.2539C42.0555 62.4805 41.9227 62.8047 41.8641 63.2266H44.2195V63.0918C44.2117 62.7168 44.1102 62.4277 43.9148 62.2246C43.7195 62.0176 43.4422 61.9141 43.0828 61.9141Z" fill="#3C3C3C"/>
<path d="M136.266 65.2422H133.184L132.598 67H130.729L133.904 58.4688H135.533L138.727 67H136.858L136.266 65.2422ZM133.658 63.8184H135.791L134.719 60.625L133.658 63.8184ZM140.955 67V61.9023H140.012V60.6602H140.955V60.1211C140.955 59.4102 141.158 58.8594 141.565 58.4688C141.975 58.0742 142.547 57.877 143.281 57.877C143.516 57.877 143.803 57.916 144.143 57.9941L144.125 59.3066C143.984 59.2715 143.813 59.2539 143.609 59.2539C142.973 59.2539 142.654 59.5527 142.654 60.1504V60.6602H143.914V61.9023H142.654V67H140.955ZM147.9 59.1016V60.6602H148.984V61.9023H147.9V65.0664C147.9 65.3008 147.945 65.4688 148.035 65.5703C148.125 65.6719 148.297 65.7227 148.551 65.7227C148.738 65.7227 148.904 65.709 149.049 65.6816V66.9648C148.717 67.0664 148.375 67.1172 148.023 67.1172C146.836 67.1172 146.23 66.5176 146.207 65.3184V61.9023H145.281V60.6602H146.207V59.1016H147.9ZM153.926 67.1172C152.996 67.1172 152.238 66.832 151.652 66.2617C151.07 65.6914 150.779 64.9316 150.779 63.9824V63.8184C150.779 63.1816 150.902 62.6133 151.148 62.1133C151.394 61.6094 151.742 61.2227 152.191 60.9531C152.644 60.6797 153.16 60.543 153.738 60.543C154.605 60.543 155.287 60.8164 155.783 61.3633C156.283 61.9102 156.533 62.6855 156.533 63.6895V64.3809H152.496C152.551 64.7949 152.715 65.127 152.988 65.377C153.266 65.627 153.615 65.752 154.037 65.752C154.689 65.752 155.199 65.5156 155.566 65.043L156.398 65.9746C156.144 66.334 155.801 66.6152 155.367 66.8184C154.934 67.0176 154.453 67.1172 153.926 67.1172ZM153.732 61.9141C153.396 61.9141 153.123 62.0273 152.912 62.2539C152.705 62.4805 152.572 62.8047 152.514 63.2266H154.869V63.0918C154.861 62.7168 154.76 62.4277 154.564 62.2246C154.369 62.0176 154.092 61.9141 153.732 61.9141ZM162.142 62.248C161.912 62.2168 161.709 62.2012 161.533 62.2012C160.892 62.2012 160.472 62.418 160.273 62.8516V67H158.58V60.6602H160.18L160.226 61.416C160.566 60.834 161.037 60.543 161.639 60.543C161.826 60.543 162.002 60.5684 162.166 60.6191L162.142 62.248Z" fill="#3C3C3C"/>
<path d="M99.4419 28.4419C99.686 28.1979 99.686 27.8021 99.4419 27.5581L95.4645 23.5806C95.2204 23.3365 94.8247 23.3365 94.5806 23.5806C94.3365 23.8247 94.3365 24.2204 94.5806 24.4645L98.1161 28L94.5806 31.5355C94.3365 31.7796 94.3365 32.1753 94.5806 32.4194C94.8247 32.6635 95.2204 32.6635 95.4645 32.4194L99.4419 28.4419ZM73 28.625H99V27.375H73V28.625Z" fill="#3C3C3C"/>
</svg>
