<svg width="428" height="63" viewBox="0 0 428 63" fill="none" xmlns="http://www.w3.org/2000/svg">
<path d="M10.448 26.932C9.752 28.744 8.588 30.532 7.376 31.672C7.544 31.864 7.796 32.332 7.88 32.536C8.324 32.092 8.78 31.564 9.2 30.976V37.972H10.052V29.692C10.52 28.888 10.952 28.036 11.288 27.196L10.448 26.932ZM12.14 32.812V31.036H14.276V32.272C14.276 32.452 14.276 32.632 14.264 32.812H12.14ZM17.36 31.036V32.812H15.14C15.152 32.632 15.152 32.452 15.152 32.272V31.036H17.36ZM18.212 33.568V30.28H15.152V29.104H18.608V28.288H15.152V27.016H14.276V28.288H10.964V29.104H14.276V30.28H11.312V33.568H14.216C14.132 34.228 13.952 34.864 13.568 35.416C12.932 34.972 12.416 34.444 12.056 33.82L11.312 34.06C11.756 34.828 12.344 35.476 13.052 36.004C12.488 36.508 11.696 36.916 10.52 37.216C10.712 37.396 10.964 37.768 11.06 37.96C12.308 37.588 13.172 37.084 13.772 36.496C14.996 37.228 16.496 37.696 18.188 37.948C18.308 37.684 18.524 37.336 18.716 37.144C17.012 36.94 15.5 36.532 14.3 35.872C14.78 35.176 14.996 34.396 15.092 33.568H18.212ZM26.504 33.412V31.42H29.732V33.412H26.504ZM22.7 33.412C22.736 32.968 22.748 32.524 22.748 32.128V31.42H25.616V33.412H22.7ZM25.616 28.66V30.58H22.748V28.66H25.616ZM29.732 30.58H26.504V28.66H29.732V30.58ZM30.608 27.808H21.872V32.128C21.872 33.796 21.752 35.908 20.432 37.396C20.624 37.504 20.984 37.804 21.116 37.984C22.028 36.964 22.436 35.596 22.616 34.264H25.616V37.804H26.504V34.264H29.732V36.7C29.732 36.928 29.648 37 29.408 37.012C29.192 37.012 28.376 37.024 27.536 36.988C27.656 37.228 27.8 37.612 27.836 37.852C28.964 37.864 29.66 37.852 30.068 37.708C30.452 37.552 30.608 37.288 30.608 36.712V27.808ZM38.576 30.796V29.26H41.24C40.676 29.8 40.064 30.316 39.416 30.796H38.576ZM41.828 34.792H36.968V33.604H41.828V34.792ZM36.968 36.748V35.5H41.828V36.748H36.968ZM44.204 31.6V30.796H40.748C41.84 29.896 42.824 28.888 43.664 27.784L42.908 27.376C42.5 27.928 42.044 28.456 41.54 28.96V28.468H38.576V26.968H37.7V28.468H34.64V29.26H37.7V30.796H33.596V31.6H38.264C36.752 32.572 35.072 33.364 33.332 33.976C33.5 34.156 33.788 34.516 33.896 34.708C34.628 34.432 35.372 34.108 36.092 33.76V37.912H36.968V37.528H41.828V37.864H42.74V32.848H37.784C38.444 32.464 39.092 32.044 39.716 31.6H44.204ZM17.39 51.608H15.77V48.068H17.39V51.608ZM14.198 44.432H15.698C15.374 46.256 14.822 47.936 13.982 49.064C14.126 49.304 14.33 49.808 14.39 50.012C14.618 49.724 14.822 49.4 15.014 49.052V53.372H15.77V52.412H18.182V47.276H15.794C16.094 46.388 16.346 45.416 16.538 44.432H18.398V43.616H14.198V44.432ZM20.882 47.9V44.456H22.826V47.9H20.882ZM25.022 47.9H23.678V44.456H24.794V43.616H19.046V44.456H20.03V47.9H18.71V48.752H20.018C19.982 50.36 19.718 52.172 18.494 53.456C18.698 53.564 19.022 53.816 19.166 53.972C20.522 52.568 20.834 50.576 20.87 48.752H22.826V53.912H23.678V48.752H25.022V47.9ZM33.326 44.876V46.988C33.326 47.864 33.566 48.104 34.61 48.104H36.29C37.07 48.104 37.322 47.828 37.418 46.736C37.166 46.676 36.818 46.544 36.626 46.4C36.602 47.192 36.53 47.312 36.206 47.312H34.706C34.274 47.312 34.202 47.264 34.202 46.976V44.876H36.662V46.112H37.586V44.06H32.906V42.956H32.006V44.06H27.422V46.208H28.298V44.876H30.542C30.326 46.472 29.702 47.36 27.242 47.828C27.41 47.984 27.626 48.332 27.698 48.536C30.446 47.96 31.202 46.844 31.478 44.876H33.326ZM35.678 52.976C35.342 52.976 35.294 52.928 35.294 52.604V49.232H32.15V49.208V47.768H31.262V49.184V49.232H27.83V50.06H31.166C30.914 51.176 29.99 52.4 27.014 53.216C27.23 53.42 27.482 53.732 27.614 53.948C30.938 53 31.874 51.488 32.09 50.06H34.37V52.604C34.37 53.588 34.634 53.84 35.546 53.84H36.794C37.622 53.84 37.874 53.384 37.958 51.572C37.706 51.5 37.31 51.356 37.118 51.188C37.082 52.748 37.022 52.976 36.698 52.976H35.678Z" fill="#3C3C3C"/>
<path d="M89.946 29.176H98.118V30.928H99.03V28.336H94.494V26.968H93.57V28.336H89.07V30.928H89.946V29.176ZM94.494 34.276H98.046V33.448H94.494V31.456H97.554V30.616H90.606V31.456H93.582V36.484C92.598 36.112 91.83 35.428 91.374 34.168C91.494 33.664 91.59 33.136 91.662 32.572L90.75 32.488C90.486 34.636 89.838 36.34 88.506 37.372C88.722 37.504 89.094 37.816 89.238 37.972C90.018 37.288 90.606 36.4 91.026 35.296C92.118 37.324 93.906 37.756 96.39 37.756H99.174C99.21 37.492 99.366 37.072 99.51 36.856C98.934 36.868 96.87 36.868 96.438 36.868C95.742 36.868 95.082 36.832 94.494 36.724V34.276ZM112.254 31.096H107.382V30.328H111.114V29.656H107.382V28.924H111.75V28.228H109.278C109.494 27.928 109.758 27.544 109.998 27.184L109.05 26.932C108.894 27.304 108.594 27.856 108.366 28.228H105.498L105.582 28.192C105.438 27.832 105.09 27.328 104.742 26.968L103.974 27.232C104.214 27.532 104.466 27.904 104.634 28.228H102.174V28.924H106.482V29.656H102.81V30.328H106.482V31.096H101.658V31.804H112.254V31.096ZM111.606 33.028C111.186 32.668 110.346 32.224 109.662 31.972L109.182 32.5C109.866 32.788 110.694 33.256 111.09 33.616L111.606 33.028ZM110.586 34.588C110.262 35.008 109.818 35.392 109.314 35.728C109.086 35.356 108.882 34.924 108.714 34.432H112.29V33.736H108.522C108.402 33.196 108.318 32.608 108.294 31.984H107.43C107.466 32.596 107.538 33.184 107.658 33.736H105.042V32.812C105.762 32.728 106.434 32.608 106.986 32.476L106.446 31.912C105.378 32.188 103.422 32.404 101.79 32.5C101.874 32.656 101.97 32.908 101.994 33.088C102.69 33.052 103.446 32.992 104.19 32.92V33.736H101.646V34.432H104.19V35.308C103.206 35.38 102.306 35.44 101.598 35.488L101.682 36.208L104.19 35.98V37.012C104.19 37.18 104.13 37.216 103.95 37.216C103.77 37.228 103.146 37.228 102.498 37.204C102.594 37.408 102.726 37.708 102.774 37.912C103.674 37.912 104.238 37.912 104.586 37.792C104.922 37.696 105.042 37.492 105.042 37.036V35.908C105.75 35.836 106.47 35.776 107.19 35.704V35.068L105.042 35.236V34.432H107.838C108.03 35.08 108.282 35.656 108.582 36.148C107.754 36.58 106.806 36.928 105.87 37.168C106.014 37.336 106.242 37.708 106.338 37.876C107.25 37.588 108.174 37.216 109.014 36.76C109.638 37.492 110.394 37.912 111.246 37.912C112.002 37.9 112.314 37.576 112.446 36.304C112.218 36.244 111.942 36.1 111.762 35.956C111.702 36.808 111.606 37.084 111.282 37.096C110.742 37.108 110.214 36.82 109.746 36.316C110.382 35.896 110.934 35.404 111.354 34.852L110.586 34.588ZM80.022 47.516C80.73 48.02 81.582 48.74 82.146 49.292C81.414 49.856 80.598 50.348 79.77 50.708C79.974 50.864 80.226 51.152 80.334 51.356C82.446 50.348 84.354 48.68 85.494 46.784L84.714 46.472C84.246 47.276 83.586 48.056 82.818 48.74C82.53 48.464 82.146 48.14 81.75 47.816C82.302 47.192 82.962 46.34 83.49 45.608L83.442 45.584H86.598V44.768H83.706V42.992H82.83V44.768H79.842V45.584H82.41C82.062 46.172 81.582 46.844 81.162 47.372C80.958 47.216 80.742 47.06 80.55 46.928L80.022 47.516ZM79.962 49.46C79.734 49.112 78.762 47.708 78.402 47.264V46.352H79.806V45.524H78.402V42.956H77.562V45.524H75.81V46.352H77.478C77.106 47.996 76.338 49.868 75.582 50.876C75.738 51.08 75.954 51.428 76.05 51.668C76.614 50.888 77.154 49.628 77.562 48.32V53.9H78.402V48.32C78.786 48.944 79.254 49.736 79.458 50.144L79.962 49.46ZM85.698 48.644C84.486 50.72 82.182 52.34 79.458 53.192C79.662 53.384 79.878 53.684 79.998 53.9C81.474 53.396 82.818 52.7 83.946 51.824C84.726 52.532 85.566 53.396 85.998 53.948L86.718 53.396C86.238 52.832 85.35 51.98 84.582 51.296C85.35 50.624 85.998 49.856 86.502 49.004L85.698 48.644ZM96.69 47.252C97.698 48.596 98.574 50.456 98.85 51.704L99.726 51.284C99.438 50.024 98.538 48.212 97.47 46.856L96.69 47.252ZM89.73 47.252C89.574 48.788 89.178 50.528 88.374 51.572L89.178 52.064C90.03 50.912 90.402 49.028 90.594 47.42L89.73 47.252ZM91.818 43.7C93.258 44.204 94.986 45.092 95.922 45.776L96.486 44.996C95.538 44.372 93.81 43.496 92.382 43.016L91.818 43.7ZM91.734 46.28V52.268C91.734 53.432 92.082 53.756 93.354 53.756H95.682C96.978 53.756 97.266 53.096 97.386 50.84C97.134 50.78 96.762 50.612 96.558 50.432C96.462 52.508 96.354 52.94 95.634 52.94H93.426C92.766 52.94 92.634 52.832 92.634 52.28V46.28H91.734ZM108.402 45.56H106.11V46.172H108.402V47.012H105.294V47.696H112.326V47.012H109.254V46.172H111.762V45.56H109.254V44.792H112.074V44.132H110.574C110.778 43.856 111.006 43.52 111.222 43.184L110.43 42.944C110.286 43.28 109.998 43.784 109.77 44.132H107.922L107.982 44.108C107.85 43.784 107.526 43.292 107.226 42.956L106.59 43.208C106.806 43.496 107.046 43.832 107.19 44.132H105.726V44.792H108.402V45.56ZM110.406 48.38C110.886 48.704 111.438 49.196 111.702 49.556L112.242 49.1C111.978 48.764 111.414 48.296 110.922 47.984L110.406 48.38ZM104.97 43.376H102.018V44.096H104.97V43.376ZM105.306 44.948H101.454V45.68H105.306V44.948ZM104.25 50.492V52.496H102.654V50.492H104.25ZM104.994 49.76H101.934V53.78H102.654V53.216H104.994V49.76ZM101.946 48.872H104.994V48.152H101.946V48.872ZM101.946 47.276H104.994V46.568H101.946V47.276ZM111.174 50.66C110.982 51.044 110.718 51.392 110.406 51.728C110.298 51.344 110.202 50.9 110.13 50.384H112.35V49.7H110.046C109.998 49.184 109.962 48.608 109.95 47.972H109.182C109.206 48.584 109.242 49.172 109.29 49.7H107.766V48.752C108.198 48.668 108.618 48.572 108.966 48.464L108.426 47.912C107.754 48.152 106.506 48.368 105.462 48.488C105.546 48.644 105.63 48.896 105.666 49.052C106.074 49.016 106.518 48.956 106.962 48.896V49.7H105.282V50.384H106.962V51.308C106.314 51.392 105.726 51.464 105.234 51.512L105.354 52.232L106.962 51.992V53.084C106.962 53.204 106.926 53.24 106.782 53.252C106.65 53.252 106.182 53.252 105.678 53.24C105.774 53.444 105.894 53.732 105.93 53.912C106.626 53.912 107.082 53.912 107.37 53.804C107.67 53.696 107.766 53.492 107.766 53.096V51.872L109.062 51.68L109.038 51.02C108.606 51.08 108.186 51.14 107.766 51.2V50.384H109.374C109.47 51.116 109.614 51.752 109.794 52.28C109.278 52.7 108.69 53.048 108.102 53.3C108.258 53.432 108.462 53.648 108.558 53.78C109.074 53.552 109.578 53.252 110.046 52.904C110.418 53.624 110.898 54.008 111.498 54.008C112.086 53.996 112.374 53.66 112.506 52.58C112.326 52.508 112.086 52.4 111.942 52.244C111.882 53.024 111.762 53.276 111.558 53.276C111.222 53.276 110.91 52.988 110.646 52.412C111.114 51.98 111.534 51.488 111.834 50.96L111.174 50.66ZM123.858 46.7H121.002V45.8H123.858V46.7ZM123.858 48.212H121.002V47.324H123.858V48.212ZM123.858 49.748H121.002V48.848H123.858V49.748ZM120.198 45.14V50.408H124.686V45.14H122.466C122.574 44.864 122.694 44.54 122.802 44.228H125.166V43.544H119.742V44.228H121.974C121.902 44.528 121.806 44.852 121.71 45.14H120.198ZM122.85 50.948C123.51 51.392 124.29 52.076 124.686 52.556L125.334 52.136C124.938 51.68 124.158 51.02 123.462 50.6L122.85 50.948ZM121.194 50.612C120.738 51.164 119.97 51.704 119.214 52.052C119.394 52.172 119.682 52.472 119.814 52.616C120.57 52.184 121.422 51.512 121.938 50.852L121.194 50.612ZM118.29 45.008H115.95V44.12H118.29V45.008ZM118.29 46.544H115.95V45.632H118.29V46.544ZM119.106 43.46H115.146V47.204H119.106V43.46ZM117.582 50.744H119.61V50.06H117.582V48.776H119.814V48.08H114.438V48.776H116.814V51.968C116.454 51.68 116.154 51.296 115.926 50.804C115.974 50.36 115.998 49.892 116.022 49.436H115.278C115.218 50.9 115.014 52.508 114.294 53.372C114.486 53.504 114.75 53.78 114.858 53.948C115.314 53.396 115.602 52.628 115.77 51.764C116.85 53.372 118.638 53.66 121.23 53.66H125.082C125.13 53.42 125.274 53.084 125.406 52.892C124.71 52.916 121.758 52.916 121.23 52.916C119.754 52.904 118.53 52.832 117.582 52.424V50.744Z" fill="#3C3C3C"/>
<circle cx="25.5" cy="7.5" r="7.5" fill="#FDD451"/>
<circle cx="100.5" cy="7.5" r="7.5" fill="#FDD451"/>
<circle cx="183.5" cy="7.5" r="7.5" fill="#FDD451"/>
<circle cx="263.5" cy="7.5" r="7.5" fill="#FDD451"/>
<circle cx="338.5" cy="7.5" r="7.5" fill="#FDD451"/>
<circle cx="406.5" cy="7.5" r="7.5" fill="#FDD451"/>
<line x1="26" y1="8" x2="407" y2="7.99997" stroke="#FDD451" stroke-width="2"/>
<path d="M161.25 27.432L158.97 36H157.878L156.21 30.384C156.146 30.152 156.082 29.92 156.018 29.688C155.954 29.456 155.902 29.252 155.862 29.076C155.822 28.892 155.794 28.764 155.778 28.692C155.77 28.796 155.726 29.02 155.646 29.364C155.574 29.7 155.482 30.052 155.37 30.42L153.75 36H152.658L150.39 27.432H151.518L152.85 32.664C152.946 33.032 153.026 33.388 153.09 33.732C153.162 34.076 153.218 34.4 153.258 34.704C153.298 34.392 153.358 34.052 153.438 33.684C153.518 33.316 153.61 32.956 153.714 32.604L155.226 27.432H156.342L157.914 32.64C158.026 33.008 158.122 33.376 158.202 33.744C158.282 34.104 158.342 34.424 158.382 34.704C158.422 34.408 158.478 34.088 158.55 33.744C158.622 33.392 158.706 33.028 158.802 32.652L160.122 27.432H161.25ZM163.862 27.156C164.022 27.156 164.162 27.212 164.282 27.324C164.41 27.428 164.474 27.596 164.474 27.828C164.474 28.052 164.41 28.22 164.282 28.332C164.162 28.444 164.022 28.5 163.862 28.5C163.686 28.5 163.538 28.444 163.418 28.332C163.298 28.22 163.238 28.052 163.238 27.828C163.238 27.596 163.298 27.428 163.418 27.324C163.538 27.212 163.686 27.156 163.862 27.156ZM164.378 29.568V36H163.322V29.568H164.378ZM170.316 29.448C170.436 29.448 170.564 29.456 170.7 29.472C170.844 29.48 170.968 29.496 171.072 29.52L170.94 30.492C170.836 30.468 170.72 30.448 170.592 30.432C170.472 30.416 170.356 30.408 170.244 30.408C169.916 30.408 169.608 30.5 169.32 30.684C169.032 30.86 168.8 31.112 168.624 31.44C168.456 31.76 168.372 32.136 168.372 32.568V36H167.316V29.568H168.18L168.3 30.744H168.348C168.556 30.392 168.824 30.088 169.152 29.832C169.48 29.576 169.868 29.448 170.316 29.448ZM175.422 29.448C175.974 29.448 176.446 29.568 176.838 29.808C177.238 30.048 177.542 30.388 177.75 30.828C177.966 31.26 178.074 31.768 178.074 32.352V32.988H173.67C173.686 33.716 173.87 34.272 174.222 34.656C174.582 35.032 175.082 35.22 175.722 35.22C176.13 35.22 176.49 35.184 176.802 35.112C177.122 35.032 177.45 34.92 177.786 34.776V35.7C177.458 35.844 177.134 35.948 176.814 36.012C176.494 36.084 176.114 36.12 175.674 36.12C175.066 36.12 174.526 35.996 174.054 35.748C173.59 35.5 173.226 35.132 172.962 34.644C172.706 34.148 172.578 33.544 172.578 32.832C172.578 32.128 172.694 31.524 172.926 31.02C173.166 30.516 173.498 30.128 173.922 29.856C174.354 29.584 174.854 29.448 175.422 29.448ZM175.41 30.312C174.906 30.312 174.506 30.476 174.21 30.804C173.922 31.124 173.75 31.572 173.694 32.148H176.97C176.962 31.604 176.834 31.164 176.586 30.828C176.338 30.484 175.946 30.312 175.41 30.312ZM183.576 30.384H181.956V36H180.9V30.384H179.772V29.892L180.9 29.532V29.16C180.9 28.328 181.084 27.732 181.452 27.372C181.82 27.004 182.332 26.82 182.988 26.82C183.244 26.82 183.476 26.844 183.684 26.892C183.9 26.932 184.084 26.98 184.236 27.036L183.96 27.864C183.832 27.824 183.684 27.784 183.516 27.744C183.348 27.704 183.176 27.684 183 27.684C182.648 27.684 182.384 27.804 182.208 28.044C182.04 28.276 181.956 28.644 181.956 29.148V29.568H183.576V30.384ZM188.637 29.448C188.757 29.448 188.885 29.456 189.021 29.472C189.165 29.48 189.289 29.496 189.393 29.52L189.261 30.492C189.157 30.468 189.041 30.448 188.913 30.432C188.793 30.416 188.677 30.408 188.565 30.408C188.237 30.408 187.929 30.5 187.641 30.684C187.353 30.86 187.121 31.112 186.945 31.44C186.777 31.76 186.693 32.136 186.693 32.568V36H185.637V29.568H186.501L186.621 30.744H186.669C186.877 30.392 187.145 30.088 187.473 29.832C187.801 29.576 188.189 29.448 188.637 29.448ZM193.695 29.46C194.479 29.46 195.059 29.632 195.435 29.976C195.811 30.32 195.999 30.868 195.999 31.62V36H195.231L195.027 35.088H194.979C194.699 35.44 194.403 35.7 194.091 35.868C193.787 36.036 193.363 36.12 192.819 36.12C192.235 36.12 191.751 35.968 191.367 35.664C190.983 35.352 190.791 34.868 190.791 34.212C190.791 33.572 191.043 33.08 191.547 32.736C192.051 32.384 192.827 32.192 193.875 32.16L194.967 32.124V31.74C194.967 31.204 194.851 30.832 194.619 30.624C194.387 30.416 194.059 30.312 193.635 30.312C193.299 30.312 192.979 30.364 192.675 30.468C192.371 30.564 192.087 30.676 191.823 30.804L191.499 30.012C191.779 29.86 192.111 29.732 192.495 29.628C192.879 29.516 193.279 29.46 193.695 29.46ZM194.007 32.892C193.207 32.924 192.651 33.052 192.339 33.276C192.035 33.5 191.883 33.816 191.883 34.224C191.883 34.584 191.991 34.848 192.207 35.016C192.431 35.184 192.715 35.268 193.059 35.268C193.603 35.268 194.055 35.12 194.415 34.824C194.775 34.52 194.955 34.056 194.955 33.432V32.856L194.007 32.892ZM205.942 29.448C206.67 29.448 207.214 29.636 207.574 30.012C207.934 30.38 208.114 30.98 208.114 31.812V36H207.07V31.86C207.07 30.844 206.634 30.336 205.762 30.336C205.138 30.336 204.69 30.516 204.418 30.876C204.154 31.236 204.022 31.76 204.022 32.448V36H202.978V31.86C202.978 30.844 202.538 30.336 201.658 30.336C201.01 30.336 200.562 30.536 200.314 30.936C200.066 31.336 199.942 31.912 199.942 32.664V36H198.886V29.568H199.738L199.894 30.444H199.954C200.154 30.108 200.422 29.86 200.758 29.7C201.102 29.532 201.466 29.448 201.85 29.448C202.858 29.448 203.514 29.808 203.818 30.528H203.878C204.094 30.16 204.386 29.888 204.754 29.712C205.13 29.536 205.526 29.448 205.942 29.448ZM213.485 29.448C214.037 29.448 214.509 29.568 214.901 29.808C215.301 30.048 215.605 30.388 215.813 30.828C216.029 31.26 216.137 31.768 216.137 32.352V32.988H211.733C211.749 33.716 211.933 34.272 212.285 34.656C212.645 35.032 213.145 35.22 213.785 35.22C214.193 35.22 214.553 35.184 214.865 35.112C215.185 35.032 215.513 34.92 215.849 34.776V35.7C215.521 35.844 215.197 35.948 214.877 36.012C214.557 36.084 214.177 36.12 213.737 36.12C213.129 36.12 212.589 35.996 212.117 35.748C211.653 35.5 211.289 35.132 211.025 34.644C210.769 34.148 210.641 33.544 210.641 32.832C210.641 32.128 210.757 31.524 210.989 31.02C211.229 30.516 211.561 30.128 211.985 29.856C212.417 29.584 212.917 29.448 213.485 29.448ZM213.473 30.312C212.969 30.312 212.569 30.476 212.273 30.804C211.985 31.124 211.813 31.572 211.757 32.148H215.033C215.025 31.604 214.897 31.164 214.649 30.828C214.401 30.484 214.009 30.312 213.473 30.312ZM168.956 52L167.924 49.348H164.528L163.508 52H162.416L165.764 43.396H166.736L170.072 52H168.956ZM166.64 45.796C166.616 45.732 166.576 45.616 166.52 45.448C166.464 45.28 166.408 45.108 166.352 44.932C166.304 44.748 166.264 44.608 166.232 44.512C166.176 44.76 166.112 45.004 166.04 45.244C165.968 45.476 165.908 45.66 165.86 45.796L164.888 48.388H167.6L166.64 45.796ZM174.256 52.672L175.072 51.976C174.328 51.1 173.248 50.008 172.384 49.312L171.604 49.996C172.456 50.692 173.488 51.724 174.256 52.672ZM187.492 43.432C188.564 43.432 189.372 43.592 189.916 43.912C190.468 44.224 190.744 44.772 190.744 45.556C190.744 46.06 190.604 46.48 190.324 46.816C190.044 47.144 189.64 47.356 189.112 47.452V47.512C189.472 47.568 189.796 47.672 190.084 47.824C190.38 47.976 190.612 48.192 190.78 48.472C190.948 48.752 191.032 49.116 191.032 49.564C191.032 50.34 190.764 50.94 190.228 51.364C189.7 51.788 188.976 52 188.056 52H185.044V43.432H187.492ZM187.708 47.08C188.444 47.08 188.948 46.964 189.22 46.732C189.492 46.492 189.628 46.14 189.628 45.676C189.628 45.204 189.46 44.868 189.124 44.668C188.796 44.46 188.268 44.356 187.54 44.356H186.124V47.08H187.708ZM186.124 47.98V51.088H187.852C188.612 51.088 189.14 50.94 189.436 50.644C189.732 50.348 189.88 49.96 189.88 49.48C189.88 49.032 189.724 48.672 189.412 48.4C189.108 48.12 188.56 47.98 187.768 47.98H186.124ZM194.684 46.06H197.852V45.256H196.808V41.932H195.992V45.256H194.684V42.208H193.88V46.924C193.88 48.736 193.772 50.884 192.944 52.396C193.136 52.516 193.436 52.78 193.568 52.924C194.3 51.712 194.564 50.152 194.648 48.592H196.316V52.9H197.132V47.788H194.672C194.684 47.5 194.684 47.212 194.684 46.924V46.06ZM202.76 46.396C202.496 47.68 202.04 48.796 201.452 49.708C200.876 48.76 200.456 47.644 200.168 46.396H202.76ZM203.18 45.556L203.024 45.592H199.244V43.312H203.828V42.496H198.404V45.916C198.404 47.836 198.32 50.536 197.276 52.468C197.48 52.54 197.84 52.768 198.008 52.9C199.004 51.052 199.22 48.388 199.244 46.396H199.412C199.748 47.944 200.24 49.324 200.936 50.44C200.312 51.22 199.592 51.808 198.812 52.192C199.004 52.36 199.256 52.696 199.376 52.912C200.144 52.48 200.852 51.916 201.452 51.184C202.04 51.916 202.748 52.504 203.588 52.924C203.744 52.696 204.02 52.36 204.2 52.192C203.324 51.808 202.592 51.22 201.992 50.476C202.808 49.252 203.42 47.692 203.72 45.736L203.18 45.556Z" fill="#3C3C3C"/>
<path d="M246.442 37V28.432H247.522V36.04H251.266V37H246.442ZM259.083 33.772C259.083 34.836 258.811 35.66 258.267 36.244C257.731 36.828 257.003 37.12 256.083 37.12C255.515 37.12 255.007 36.992 254.559 36.736C254.119 36.472 253.771 36.092 253.515 35.596C253.259 35.092 253.131 34.484 253.131 33.772C253.131 32.708 253.399 31.888 253.935 31.312C254.471 30.736 255.199 30.448 256.119 30.448C256.703 30.448 257.215 30.58 257.655 30.844C258.103 31.1 258.451 31.476 258.699 31.972C258.955 32.46 259.083 33.06 259.083 33.772ZM254.223 33.772C254.223 34.532 254.371 35.136 254.667 35.584C254.971 36.024 255.451 36.244 256.107 36.244C256.755 36.244 257.231 36.024 257.535 35.584C257.839 35.136 257.991 34.532 257.991 33.772C257.991 33.012 257.839 32.416 257.535 31.984C257.231 31.552 256.751 31.336 256.095 31.336C255.439 31.336 254.963 31.552 254.667 31.984C254.371 32.416 254.223 33.012 254.223 33.772ZM265.574 33.364C265.47 33.036 265.378 32.716 265.298 32.404C265.226 32.084 265.17 31.836 265.13 31.66H265.082C265.05 31.836 264.998 32.084 264.926 32.404C264.854 32.716 264.762 33.04 264.65 33.376L263.498 36.988H262.298L260.534 30.556H261.626L262.514 33.988C262.602 34.332 262.686 34.68 262.766 35.032C262.846 35.384 262.902 35.676 262.934 35.908H262.982C263.014 35.772 263.05 35.604 263.09 35.404C263.138 35.204 263.19 34.996 263.246 34.78C263.302 34.556 263.358 34.356 263.414 34.18L264.554 30.556H265.706L266.81 34.18C266.898 34.452 266.982 34.748 267.062 35.068C267.15 35.388 267.21 35.664 267.242 35.896H267.29C267.314 35.696 267.366 35.42 267.446 35.068C267.534 34.716 267.626 34.356 267.722 33.988L268.622 30.556H269.702L267.914 36.988H266.678L265.574 33.364ZM271.216 34.252V33.316H274.12V34.252H271.216ZM279.487 31.384H277.867V37H276.811V31.384H275.683V30.892L276.811 30.532V30.16C276.811 29.328 276.995 28.732 277.363 28.372C277.731 28.004 278.243 27.82 278.899 27.82C279.155 27.82 279.387 27.844 279.595 27.892C279.811 27.932 279.995 27.98 280.147 28.036L279.871 28.864C279.743 28.824 279.595 28.784 279.427 28.744C279.259 28.704 279.087 28.684 278.911 28.684C278.559 28.684 278.295 28.804 278.119 29.044C277.951 29.276 277.867 29.644 277.867 30.148V30.568H279.487V31.384ZM281.191 28.156C281.351 28.156 281.491 28.212 281.611 28.324C281.739 28.428 281.803 28.596 281.803 28.828C281.803 29.052 281.739 29.22 281.611 29.332C281.491 29.444 281.351 29.5 281.191 29.5C281.015 29.5 280.867 29.444 280.747 29.332C280.627 29.22 280.567 29.052 280.567 28.828C280.567 28.596 280.627 28.428 280.747 28.324C280.867 28.212 281.015 28.156 281.191 28.156ZM281.707 30.568V37H280.651V30.568H281.707Z" fill="#3C3C3C"/>
<path d="M333.329 37H332.249V33.004H327.857V37H326.777V28.432H327.857V32.056H332.249V28.432H333.329V37ZM336.967 28.156C337.127 28.156 337.267 28.212 337.387 28.324C337.515 28.428 337.579 28.596 337.579 28.828C337.579 29.052 337.515 29.22 337.387 29.332C337.267 29.444 337.127 29.5 336.967 29.5C336.791 29.5 336.643 29.444 336.523 29.332C336.403 29.22 336.343 29.052 336.343 28.828C336.343 28.596 336.403 28.428 336.523 28.324C336.643 28.212 336.791 28.156 336.967 28.156ZM337.483 30.568V37H336.427V30.568H337.483ZM339.881 34.252V33.316H342.785V34.252H339.881ZM348.152 31.384H346.532V37H345.476V31.384H344.348V30.892L345.476 30.532V30.16C345.476 29.328 345.66 28.732 346.028 28.372C346.396 28.004 346.908 27.82 347.564 27.82C347.82 27.82 348.052 27.844 348.26 27.892C348.476 27.932 348.66 27.98 348.812 28.036L348.536 28.864C348.408 28.824 348.26 28.784 348.092 28.744C347.924 28.704 347.752 28.684 347.576 28.684C347.224 28.684 346.96 28.804 346.784 29.044C346.616 29.276 346.532 29.644 346.532 30.148V30.568H348.152V31.384ZM349.856 28.156C350.016 28.156 350.156 28.212 350.276 28.324C350.404 28.428 350.468 28.596 350.468 28.828C350.468 29.052 350.404 29.22 350.276 29.332C350.156 29.444 350.016 29.5 349.856 29.5C349.68 29.5 349.532 29.444 349.412 29.332C349.292 29.22 349.232 29.052 349.232 28.828C349.232 28.596 349.292 28.428 349.412 28.324C349.532 28.212 349.68 28.156 349.856 28.156ZM350.372 30.568V37H349.316V30.568H350.372Z" fill="#3C3C3C"/>
<path d="M394.167 37H393.087V28.432H397.875V29.38H394.167V32.416H397.647V33.364H394.167V37ZM400.605 28.156C400.765 28.156 400.905 28.212 401.025 28.324C401.153 28.428 401.217 28.596 401.217 28.828C401.217 29.052 401.153 29.22 401.025 29.332C400.905 29.444 400.765 29.5 400.605 29.5C400.429 29.5 400.281 29.444 400.161 29.332C400.041 29.22 399.981 29.052 399.981 28.828C399.981 28.596 400.041 28.428 400.161 28.324C400.281 28.212 400.429 28.156 400.605 28.156ZM401.121 30.568V37H400.065V30.568H401.121ZM407.155 30.448C407.923 30.448 408.503 30.636 408.895 31.012C409.287 31.38 409.483 31.98 409.483 32.812V37H408.439V32.884C408.439 31.852 407.959 31.336 406.999 31.336C406.287 31.336 405.795 31.536 405.523 31.936C405.251 32.336 405.115 32.912 405.115 33.664V37H404.059V30.568H404.911L405.067 31.444H405.127C405.335 31.108 405.623 30.86 405.991 30.7C406.359 30.532 406.747 30.448 407.155 30.448ZM414.813 30.46C415.597 30.46 416.177 30.632 416.553 30.976C416.929 31.32 417.117 31.868 417.117 32.62V37H416.349L416.145 36.088H416.097C415.817 36.44 415.521 36.7 415.209 36.868C414.905 37.036 414.481 37.12 413.937 37.12C413.353 37.12 412.869 36.968 412.485 36.664C412.101 36.352 411.909 35.868 411.909 35.212C411.909 34.572 412.161 34.08 412.665 33.736C413.169 33.384 413.945 33.192 414.993 33.16L416.085 33.124V32.74C416.085 32.204 415.969 31.832 415.737 31.624C415.505 31.416 415.177 31.312 414.753 31.312C414.417 31.312 414.097 31.364 413.793 31.468C413.489 31.564 413.205 31.676 412.941 31.804L412.617 31.012C412.897 30.86 413.229 30.732 413.613 30.628C413.997 30.516 414.397 30.46 414.813 30.46ZM415.125 33.892C414.325 33.924 413.769 34.052 413.457 34.276C413.153 34.5 413.001 34.816 413.001 35.224C413.001 35.584 413.109 35.848 413.325 36.016C413.549 36.184 413.833 36.268 414.177 36.268C414.721 36.268 415.173 36.12 415.533 35.824C415.893 35.52 416.073 35.056 416.073 34.432V33.856L415.125 33.892ZM421.06 37H420.004V27.88H421.06V37ZM390.272 50.348C390.344 49.988 390.416 49.604 390.488 49.232H392.276V49.448H393.08V46.58H391.232C392.3 45.86 393.224 44.9 393.752 43.712L393.2 43.424L393.044 43.46H389.792V44.192H392.576C392.276 44.648 391.88 45.08 391.436 45.452C391.076 45.116 390.488 44.684 389.996 44.384L389.48 44.888C389.936 45.164 390.488 45.572 390.824 45.92C390.104 46.412 389.276 46.808 388.484 47.048C388.64 47.204 388.856 47.504 388.964 47.708C389.372 47.564 389.78 47.396 390.176 47.192V47.3H392.276V48.536H389.864C389.72 49.412 389.48 50.528 389.288 51.248L390.032 51.38L390.116 51.044H392.24C392.108 52.328 391.988 52.88 391.796 53.06C391.7 53.156 391.568 53.168 391.352 53.168C391.112 53.168 390.464 53.156 389.804 53.096C389.948 53.3 390.056 53.624 390.068 53.852C390.728 53.888 391.352 53.888 391.664 53.876C392.036 53.852 392.252 53.792 392.456 53.588C392.768 53.276 392.924 52.532 393.08 50.708C393.104 50.6 393.116 50.348 393.116 50.348H390.272ZM397.352 50.636C397.064 51.188 396.656 51.644 396.164 52.016C395.636 51.632 395.216 51.164 394.952 50.636H397.352ZM397.904 49.952L397.76 49.988H393.788V50.636H394.712L394.22 50.78C394.52 51.428 394.952 51.98 395.492 52.448C394.784 52.832 393.968 53.096 393.104 53.264C393.248 53.432 393.428 53.732 393.5 53.924C394.46 53.708 395.36 53.384 396.128 52.916C396.872 53.384 397.76 53.72 398.78 53.912C398.9 53.696 399.116 53.348 399.308 53.18C398.372 53.048 397.532 52.784 396.824 52.424C397.508 51.848 398.06 51.104 398.396 50.156L397.904 49.952ZM398.612 44.24C398.216 44.648 397.556 45.224 397.004 45.608C396.692 45.392 396.404 45.152 396.128 44.888C396.668 44.516 397.34 44 397.856 43.508L397.196 43.04C396.812 43.448 396.2 44.012 395.684 44.408C395.3 43.964 394.988 43.484 394.748 42.956L394.04 43.184C394.664 44.564 395.672 45.704 396.932 46.532H394.232V47.456C394.232 48.044 394.064 48.692 393.116 49.208C393.272 49.316 393.572 49.604 393.692 49.76C394.748 49.148 394.988 48.26 394.988 47.48V47.252H396.62V48.332C396.62 48.896 396.68 49.088 396.824 49.232C396.992 49.364 397.256 49.412 397.484 49.412H398.072C398.24 49.412 398.48 49.388 398.6 49.352C398.756 49.292 398.888 49.208 398.96 49.076C399.032 48.944 399.068 48.584 399.092 48.284C398.876 48.224 398.588 48.08 398.444 47.948C398.432 48.248 398.42 48.476 398.396 48.572C398.36 48.656 398.3 48.716 398.252 48.74C398.204 48.764 398.096 48.764 397.988 48.764H397.64C397.544 48.764 397.484 48.752 397.436 48.716C397.388 48.68 397.376 48.56 397.376 48.404V46.796C397.916 47.108 398.48 47.348 399.092 47.54C399.224 47.324 399.452 47.012 399.644 46.832C398.912 46.64 398.228 46.352 397.604 45.992C398.144 45.644 398.78 45.152 399.272 44.696L398.612 44.24ZM411.176 48.704C410.6 49.244 409.676 49.916 408.908 50.408C408.476 49.784 408.152 49.076 407.9 48.308H412.196V47.528H407.42V46.448H411.332V45.716H407.42V44.732H411.788V43.952H407.42V42.956H406.532V43.952H402.236V44.732H406.532V45.716H402.776V46.448H406.532V47.528H401.792V48.308H405.944C404.768 49.304 402.956 50.192 401.396 50.636C401.576 50.828 401.828 51.14 401.972 51.368C402.74 51.116 403.58 50.744 404.384 50.312V52.7C403.76 52.856 403.184 52.988 402.704 53.096L402.992 53.912C404.42 53.552 406.46 53.048 408.344 52.544L408.248 51.752C407.252 52.004 406.232 52.256 405.284 52.484V49.772C405.956 49.34 406.568 48.86 407.06 48.368C407.9 51.08 409.436 53.012 411.992 53.876C412.112 53.636 412.364 53.264 412.568 53.096C411.224 52.688 410.144 51.968 409.34 50.984C410.144 50.516 411.128 49.868 411.884 49.256L411.176 48.704ZM422.432 50.636V51.44H417.464V50.636H422.432ZM417.464 52.904V52.076H422.432V52.904H417.464ZM416.6 53.912H417.464V53.54H422.432V53.888H423.332V50H416.6V53.912ZM421.616 48.776C421.856 48.416 422.156 47.876 422.432 47.36L421.676 47.12C421.52 47.528 421.22 48.164 420.992 48.56L421.616 48.776ZM417.38 47.372C417.68 47.816 417.956 48.392 418.052 48.776L418.736 48.524C418.628 48.14 418.328 47.588 418.016 47.168L417.38 47.372ZM416.66 47.036H419.492V48.824H416.66V47.036ZM423.188 48.824H420.224V47.036H423.188V48.824ZM415.892 49.436H424.004V46.412H415.892V49.436ZM418.004 45.128C418.736 44.648 419.384 44.156 419.84 43.676C420.356 44.18 421.04 44.672 421.784 45.128H418.004ZM419.384 42.956C418.388 44.108 416.372 45.332 414.344 46.028C414.512 46.196 414.716 46.52 414.824 46.724C415.868 46.328 416.924 45.8 417.836 45.236V45.776H422V45.26C422.96 45.824 424.016 46.316 424.952 46.64C425.084 46.412 425.288 46.1 425.48 45.896C423.632 45.356 421.556 44.264 420.212 42.956H419.384Z" fill="#3C3C3C"/>
</svg>
